<svg width="243" height="69" viewBox="0 0 243 69" fill="none" xmlns="http://www.w3.org/2000/svg">
<path d="M158.577 68H218.827C231.804 68 242 63.7684 242 58.8316C242 53.8947 231.804 49.6632 218.827 49.6632C214.192 49.6632 209.558 49.6632 204.923 49.6632C223.462 34.5 214.192 1 130.769 1C75.1538 1 47.3462 13.3421 47.3462 38.3789H38.0769C17.6846 38.3789 1 45.0789 1 53.1895C1 61.3 17.6846 68 38.0769 68H84.4231H158.577Z" stroke="url(#paint0_linear_215_838)" stroke-width="2" stroke-linecap="round" stroke-linejoin="round"/>
<path d="M92.1254 39.4334H95.0534V40.3214H91.0334V31.9574H92.1254V39.4334ZM100.005 40.4054C99.2291 40.4054 98.5211 40.2254 97.8811 39.8654C97.2411 39.4974 96.7331 38.9894 96.3571 38.3414C95.9891 37.6854 95.8051 36.9494 95.8051 36.1334C95.8051 35.3174 95.9891 34.5854 96.3571 33.9374C96.7331 33.2814 97.2411 32.7734 97.8811 32.4134C98.5211 32.0454 99.2291 31.8614 100.005 31.8614C100.789 31.8614 101.501 32.0454 102.141 32.4134C102.781 32.7734 103.285 33.2774 103.653 33.9254C104.021 34.5734 104.205 35.3094 104.205 36.1334C104.205 36.9574 104.021 37.6934 103.653 38.3414C103.285 38.9894 102.781 39.4974 102.141 39.8654C101.501 40.2254 100.789 40.4054 100.005 40.4054ZM100.005 39.4574C100.589 39.4574 101.113 39.3214 101.577 39.0494C102.049 38.7774 102.417 38.3894 102.681 37.8854C102.953 37.3814 103.089 36.7974 103.089 36.1334C103.089 35.4614 102.953 34.8774 102.681 34.3814C102.417 33.8774 102.053 33.4894 101.589 33.2174C101.125 32.9454 100.597 32.8094 100.005 32.8094C99.4131 32.8094 98.8851 32.9454 98.4211 33.2174C97.9571 33.4894 97.5891 33.8774 97.3171 34.3814C97.0531 34.8774 96.9211 35.4614 96.9211 36.1334C96.9211 36.7974 97.0531 37.3814 97.3171 37.8854C97.5891 38.3894 97.9571 38.7774 98.4211 39.0494C98.8931 39.3214 99.4211 39.4574 100.005 39.4574ZM111.983 34.3814C111.751 33.8934 111.415 33.5174 110.975 33.2534C110.535 32.9814 110.023 32.8454 109.439 32.8454C108.855 32.8454 108.327 32.9814 107.855 33.2534C107.391 33.5174 107.023 33.9014 106.751 34.4054C106.487 34.9014 106.355 35.4774 106.355 36.1334C106.355 36.7894 106.487 37.3654 106.751 37.8614C107.023 38.3574 107.391 38.7414 107.855 39.0134C108.327 39.2774 108.855 39.4094 109.439 39.4094C110.255 39.4094 110.927 39.1654 111.455 38.6774C111.983 38.1894 112.291 37.5294 112.379 36.6974H109.043V35.8094H113.543V36.6494C113.479 37.3374 113.263 37.9694 112.895 38.5454C112.527 39.1134 112.043 39.5654 111.443 39.9014C110.843 40.2294 110.175 40.3934 109.439 40.3934C108.663 40.3934 107.955 40.2134 107.315 39.8534C106.675 39.4854 106.167 38.9774 105.791 38.3294C105.423 37.6814 105.239 36.9494 105.239 36.1334C105.239 35.3174 105.423 34.5854 105.791 33.9374C106.167 33.2814 106.675 32.7734 107.315 32.4134C107.955 32.0454 108.663 31.8614 109.439 31.8614C110.327 31.8614 111.111 32.0814 111.791 32.5214C112.479 32.9614 112.979 33.5814 113.291 34.3814H111.983ZM118.779 40.4054C118.003 40.4054 117.295 40.2254 116.655 39.8654C116.015 39.4974 115.507 38.9894 115.131 38.3414C114.763 37.6854 114.579 36.9494 114.579 36.1334C114.579 35.3174 114.763 34.5854 115.131 33.9374C115.507 33.2814 116.015 32.7734 116.655 32.4134C117.295 32.0454 118.003 31.8614 118.779 31.8614C119.563 31.8614 120.275 32.0454 120.915 32.4134C121.555 32.7734 122.059 33.2774 122.427 33.9254C122.795 34.5734 122.979 35.3094 122.979 36.1334C122.979 36.9574 122.795 37.6934 122.427 38.3414C122.059 38.9894 121.555 39.4974 120.915 39.8654C120.275 40.2254 119.563 40.4054 118.779 40.4054ZM118.779 39.4574C119.363 39.4574 119.887 39.3214 120.351 39.0494C120.823 38.7774 121.191 38.3894 121.455 37.8854C121.727 37.3814 121.863 36.7974 121.863 36.1334C121.863 35.4614 121.727 34.8774 121.455 34.3814C121.191 33.8774 120.827 33.4894 120.363 33.2174C119.899 32.9454 119.371 32.8094 118.779 32.8094C118.187 32.8094 117.659 32.9454 117.195 33.2174C116.731 33.4894 116.363 33.8774 116.091 34.3814C115.827 34.8774 115.695 35.4614 115.695 36.1334C115.695 36.7974 115.827 37.3814 116.091 37.8854C116.363 38.3894 116.731 38.7774 117.195 39.0494C117.667 39.3214 118.195 39.4574 118.779 39.4574Z" fill="black"/>
<defs>
<linearGradient id="paint0_linear_215_838" x1="133.55" y1="-9.5463" x2="134.602" y2="109.254" gradientUnits="userSpaceOnUse">
<stop stop-color="#3FABF9"/>
<stop offset="1" stop-color="#D7E6F4"/>
</linearGradient>
</defs>
</svg>
